<svg xmlns="http://www.w3.org/2000/svg" width="800" height="200" fill="none"><path fill="#fff" d="M0 0h800v200H0z"/><path fill="#F32735" d="M467.985 126.209c-.002-.009-.008-.016-.011-.025-.006-.015-.012-.031-.02-.045-.006-.009-.015-.017-.023-.026-.009-.011-.017-.024-.028-.034-.01-.009-.022-.015-.032-.022-.012-.009-.022-.018-.036-.025l-3.87-2.013a.352.352 0 0 0-.322 0l-3.871 2.013c-.013.007-.024.017-.035.025-.011.007-.023.013-.032.022-.011.01-.019.023-.029.034-.007.009-.016.017-.022.026-.009.014-.015.03-.021.045-.003.008-.009.016-.011.025a.28.28 0 0 0-.011.076v3.825l-3.226 1.678v-7.483a.245.245 0 0 0-.011-.076c-.002-.008-.008-.016-.011-.024-.007-.016-.012-.032-.021-.046-.005-.009-.014-.017-.022-.026-.009-.011-.017-.024-.028-.034l-.032-.022c-.012-.008-.022-.018-.036-.024l-3.87-2.014a.352.352 0 0 0-.322 0l-3.871 2.014c-.013.006-.024.016-.036.024-.01.008-.022.014-.031.022-.011.01-.019.023-.029.034-.007.009-.016.017-.022.026-.009.014-.015.03-.021.046-.004.008-.009.016-.011.024a.28.28 0 0 0-.011.076v11.98c0 .104.062.201.162.253l7.742 4.027c.017.009.035.014.053.02.008.003.016.008.025.01.028.006.055.01.083.01a.392.392 0 0 0 .083-.01l.021-.008c.019-.006.038-.012.056-.021l7.743-4.027a.288.288 0 0 0 .161-.253v-3.825l3.709-1.93a.286.286 0 0 0 .162-.252v-3.994a.638.638 0 0 0-.015-.076Zm-11.926 9.741-3.22-1.647 3.382-1.759 3.71-1.929 3.223 1.676-2.365 1.22-4.73 2.439Zm7.421-7.482v3.32l-1.355-.705-1.872-.973v-3.321l1.355.705 1.872.974Zm.322-3.86 3.225 1.677-3.225 1.678-3.224-1.678 3.224-1.677Zm-9.936 8.489-1.355.705v-7.314l1.872-.974 1.355-.704v7.313l-1.872.974Zm-1.677-10.469 3.224 1.678-3.224 1.678-3.224-1.678 3.224-1.678Zm-3.549 2.182 1.355.704 1.871.974V134.307c0 .011.004.022.006.032.002.014.002.029.006.043v.001c.004.011.011.022.016.032.006.012.009.026.017.037v.001c.007.01.017.018.025.028.009.01.016.021.026.03l.001.001c.009.008.021.014.031.021.012.008.022.018.035.024l.001.001.002.001 3.707 1.896v3.353l-7.099-3.692V124.81Zm14.84 11.306-7.098 3.692v-3.353l5.256-2.712 1.842-.949v3.322Zm3.871-6.006-3.226 1.678v-3.32l1.871-.974 1.355-.705v3.321Z"/><path fill="#9CA3AF" d="M335.6 137v-6.768h-2.592v-1.152h2.592v-1.584c0-.672.208-1.2.624-1.584.427-.395 1.008-.592 1.744-.592h2.544v1.152h-2.544c-.352 0-.624.091-.816.272-.181.171-.272.421-.272.752v1.584h3.632v1.152h-3.632V137h-1.28Zm10.794.144c-.683 0-1.275-.133-1.776-.4a2.825 2.825 0 0 1-1.168-1.152c-.278-.501-.416-1.093-.416-1.776v-2.432c0-.693.138-1.285.416-1.776a2.825 2.825 0 0 1 1.168-1.152c.501-.267 1.093-.4 1.776-.4.682 0 1.274.133 1.776.4.501.267.89.651 1.168 1.152.277.491.416 1.077.416 1.76v2.448c0 .683-.139 1.275-.416 1.776a2.836 2.836 0 0 1-1.168 1.152c-.502.267-1.094.4-1.776.4Zm0-1.136c.661 0 1.173-.187 1.536-.56.362-.373.544-.917.544-1.632v-2.432c0-.715-.187-1.259-.56-1.632-.363-.373-.87-.56-1.52-.56-.651 0-1.163.187-1.536.56-.363.373-.544.917-.544 1.632v2.432c0 .715.181 1.259.544 1.632.373.373.885.56 1.536.56Zm6.634.992v-8.8h1.248v1.632h.304l-.448 1.008c.01-.896.229-1.584.656-2.064.426-.491 1.04-.736 1.84-.736.928 0 1.664.293 2.208.88.554.576.832 1.355.832 2.336v.528h-1.296v-.432c0-.715-.176-1.264-.528-1.648-.352-.395-.854-.592-1.504-.592-.63 0-1.126.197-1.488.592-.363.395-.544.944-.544 1.648V137h-1.28Zm19.203 0v-11.68h1.28v10.528h5.376V137h-6.656Zm11.85.16c-.928 0-1.659-.235-2.192-.704-.534-.48-.8-1.125-.8-1.936 0-.8.261-1.429.784-1.888.522-.469 1.226-.704 2.112-.704h2.8V131c0-.587-.171-1.04-.512-1.36-.342-.32-.827-.48-1.456-.48-.555 0-1.019.123-1.392.368a1.361 1.361 0 0 0-.624.992h-1.28c.106-.757.458-1.36 1.056-1.808.608-.448 1.365-.672 2.272-.672.981 0 1.76.267 2.336.8.576.523.864 1.232.864 2.128V137h-1.248v-1.712h-.208l.24-.256c0 .651-.251 1.168-.752 1.552-.502.384-1.168.576-2 .576Zm.304-1.024c.704 0 1.28-.176 1.728-.528.448-.352.672-.811.672-1.376v-1.328h-2.784c-.502 0-.902.139-1.2.416-.299.277-.448.656-.448 1.136 0 .512.181.923.544 1.232.362.299.858.448 1.488.448Zm7.018.864v-8.8h1.248v1.632h.304l-.448 1.008c.01-.896.229-1.584.656-2.064.426-.491 1.04-.736 1.84-.736.928 0 1.664.293 2.208.88.554.576.832 1.355.832 2.336v.528h-1.296v-.432c0-.715-.176-1.264-.528-1.648-.352-.395-.854-.592-1.504-.592-.63 0-1.126.197-1.488.592-.363.395-.544.944-.544 1.648V137h-1.28Zm11.865.16c-.928 0-1.658-.235-2.192-.704-.533-.48-.8-1.125-.8-1.936 0-.8.262-1.429.784-1.888.523-.469 1.227-.704 2.112-.704h2.8V131c0-.587-.17-1.04-.512-1.36-.341-.32-.826-.48-1.456-.48-.554 0-1.018.123-1.392.368-.362.245-.57.576-.624.992h-1.28c.107-.757.459-1.36 1.056-1.808.608-.448 1.366-.672 2.272-.672.982 0 1.76.267 2.336.8.576.523.864 1.232.864 2.128V137h-1.248v-1.712h-.208l.24-.256c0 .651-.25 1.168-.752 1.552-.501.384-1.168.576-2 .576Zm.304-1.024c.704 0 1.28-.176 1.728-.528.448-.352.672-.811.672-1.376v-1.328h-2.784c-.501 0-.901.139-1.2.416-.298.277-.448.656-.448 1.136 0 .512.182.923.544 1.232.363.299.859.448 1.488.448Zm9.13.864-2.976-8.8h1.296l2.032 6.096a131.598 131.598 0 0 1 .528 1.744 131.598 131.598 0 0 1 .528-1.744l1.984-6.096h1.28l-2.976 8.8h-1.696Zm10.442.16c-.683 0-1.275-.133-1.776-.4a2.924 2.924 0 0 1-1.168-1.168c-.278-.501-.416-1.083-.416-1.744v-2.496c0-.672.138-1.253.416-1.744a2.825 2.825 0 0 1 1.168-1.152c.501-.277 1.093-.416 1.776-.416.682 0 1.274.139 1.776.416.501.267.89.651 1.168 1.152.277.491.416 1.072.416 1.744v1.552h-5.472v.944c0 .715.181 1.269.544 1.664.373.384.896.576 1.568.576.565 0 1.024-.112 1.376-.336.362-.224.592-.549.688-.976h1.264a2.558 2.558 0 0 1-1.072 1.744c-.598.427-1.35.64-2.256.64Zm2.112-5.104v-.704c0-.715-.182-1.264-.544-1.648-.363-.395-.886-.592-1.568-.592-.672 0-1.195.197-1.568.592-.363.384-.544.933-.544 1.648v.56h4.352l-.128.144ZM433.89 137c-.502 0-.939-.096-1.312-.288a2.047 2.047 0 0 1-.848-.832c-.203-.363-.304-.789-.304-1.28v-8.128h-2.928v-1.152h4.192v9.28c0 .395.106.704.32.928.213.213.506.32.88.32h2.8V137h-2.8Z"/><path fill="#0F172A" d="M295.984 107V71.96h9.792c2.304 0 4.304.448 6 1.344 1.696.864 3.008 2.096 3.936 3.696.96 1.6 1.44 3.488 1.44 5.664v13.584c0 2.144-.48 4.032-1.44 5.664-.928 1.632-2.24 2.896-3.936 3.792-1.696.864-3.696 1.296-6 1.296h-9.792Zm5.184-4.704h4.608c1.92 0 3.424-.528 4.512-1.584 1.12-1.088 1.68-2.576 1.68-4.464V82.664c0-1.856-.56-3.312-1.68-4.368-1.088-1.088-2.592-1.632-4.512-1.632h-4.608v25.632Zm32.093 5.184c-2.144 0-4.032-.416-5.664-1.248-1.6-.864-2.832-2.064-3.696-3.6-.864-1.536-1.296-3.328-1.296-5.376v-6.912c0-2.08.432-3.872 1.296-5.376.864-1.536 2.096-2.72 3.696-3.552 1.632-.864 3.52-1.296 5.664-1.296 2.176 0 4.064.432 5.664 1.296 1.6.832 2.832 2.016 3.696 3.552.864 1.504 1.296 3.296 1.296 5.376v4.704h-16.32v2.208c0 1.952.48 3.44 1.44 4.464.992 1.024 2.416 1.536 4.272 1.536 1.504 0 2.72-.256 3.648-.768.928-.544 1.504-1.328 1.728-2.352h5.136c-.384 2.24-1.536 4.032-3.456 5.376-1.92 1.312-4.288 1.968-7.104 1.968Zm5.664-15.552v-1.632c0-1.92-.48-3.408-1.44-4.464-.96-1.056-2.368-1.584-4.224-1.584-1.824 0-3.232.528-4.224 1.584-.96 1.056-1.44 2.56-1.44 4.512v1.2l11.712-.048-.384.432ZM355.947 107V88.088h-7.488v-4.704h7.488v-4.272c0-2.208.704-3.952 2.111-5.232 1.409-1.28 3.329-1.92 5.761-1.92h7.728v4.608h-7.632c-.896 0-1.6.224-2.112.672-.48.448-.72 1.088-.72 1.92v4.224h10.464v4.704h-10.464V107h-5.136Zm28.397.48c-2.752 0-4.928-.704-6.528-2.112-1.568-1.44-2.352-3.392-2.352-5.856 0-2.496.832-4.448 2.496-5.856 1.696-1.44 4.016-2.16 6.96-2.16h7.344v-2.448c0-1.44-.448-2.56-1.344-3.36-.896-.8-2.16-1.2-3.792-1.2-1.44 0-2.64.32-3.6.96-.96.608-1.52 1.424-1.68 2.448h-5.088c.288-2.368 1.376-4.256 3.264-5.664 1.92-1.408 4.336-2.112 7.248-2.112 3.136 0 5.616.8 7.44 2.4 1.824 1.568 2.736 3.712 2.736 6.432V107h-5.04v-4.848h-.864l.864-.96c0 1.92-.736 3.456-2.208 4.608-1.472 1.12-3.424 1.68-5.856 1.68Zm1.536-3.984c1.856 0 3.376-.464 4.56-1.392 1.216-.96 1.824-2.176 1.824-3.648V95h-7.248c-1.344 0-2.416.368-3.216 1.104-.768.736-1.152 1.744-1.152 3.024 0 1.344.464 2.416 1.392 3.216.928.768 2.208 1.152 3.84 1.152Zm27.917 3.984c-3.168 0-5.696-.912-7.584-2.736-1.888-1.856-2.832-4.368-2.832-7.536V80.6h5.184v16.608c0 1.824.464 3.248 1.392 4.272.928.992 2.208 1.488 3.84 1.488 1.664 0 2.96-.496 3.888-1.488.96-1.024 1.44-2.448 1.44-4.272V80.6h5.184v16.608c0 3.168-.96 5.68-2.88 7.536-1.888 1.824-4.432 2.736-7.632 2.736Zm30.701-.48c-1.632 0-3.056-.32-4.272-.96a7.421 7.421 0 0 1-2.88-2.832c-.672-1.216-1.008-2.624-1.008-4.224v-22.32h-8.64V71.96h13.824v27.024c0 1.024.288 1.84.864 2.448.576.576 1.36.864 2.352.864h8.16V107h-8.4Zm25.949 0c-2.4 0-4.272-.656-5.616-1.968-1.344-1.312-2.016-3.136-2.016-5.472V85.304h-7.296V80.6h7.296v-7.44h5.184v7.44h10.32v4.704h-10.32V99.56c0 1.824.88 2.736 2.64 2.736h7.2V107h-7.392Zm23.982.432c-2.176 0-4.064-.416-5.664-1.248-1.6-.832-2.832-2.016-3.696-3.552-.864-1.536-1.296-3.344-1.296-5.424v-6.816c0-2.112.432-3.92 1.296-5.424.864-1.536 2.096-2.72 3.696-3.552 1.6-.832 3.488-1.248 5.664-1.248 2.176 0 4.064.416 5.664 1.248 1.6.832 2.832 2.016 3.696 3.552.864 1.504 1.296 3.312 1.296 5.424v6.816c0 2.08-.432 3.888-1.296 5.424-.864 1.536-2.096 2.72-3.696 3.552-1.6.832-3.488 1.248-5.664 1.248Zm0-4.56c1.76 0 3.12-.48 4.08-1.44.96-.992 1.44-2.4 1.44-4.224v-6.816c0-1.856-.48-3.264-1.44-4.224-.96-.96-2.32-1.44-4.08-1.44-1.728 0-3.088.48-4.08 1.44-.96.96-1.44 2.368-1.44 4.224v6.816c0 1.824.48 3.232 1.44 4.224.992.96 2.352 1.44 4.08 1.44Z"/><path fill="#0F172A" fill-rule="evenodd" d="M488.282 68.95c-1.247 1.366-1.895 4.658-3.633 4.497-1.425-.133-1.292-1.624-1.292-1.624s-.299.63-.332.862c-.033.232-.728-.894-.728-1.358 0-.464-.464 1.358-.232 2.716.564 3.302 3.898 3.076 6.253 2.268 1.798-.618 4.135-1.62 5.415-2.635.456-.361.678-.746.767-1.145.089.398.311.784.767 1.145 1.279 1.015 3.617 2.018 5.416 2.635 2.354.808 5.688 1.034 6.252-2.268.232-1.358-.232-3.18-.232-2.716 0 .464-.695 1.59-.729 1.358-.033-.232-.331-.862-.331-.862s.133 1.491-1.292 1.624c-1.738.161-2.386-3.131-3.632-4.497-1.959-2.144-5.668-.328-6.156 2.171-.022.12-.044.239-.063.356a9.301 9.301 0 0 0-.063-.356c-.488-2.498-4.196-4.315-6.155-2.171Z" clip-rule="evenodd"/></svg>